<?xml version="1.0" encoding="UTF-8"?>
<!-- Generated by jsxcad -->
<!DOCTYPE svg PUBLIC "-//W3C//DTD SVG 1.1 Tiny//EN" "http://www.w3.org/Graphics/SVG/1.1/DTD/svg11-tiny.dtd">
<svg baseProfile="tiny" height="574.55764mm" width="497.94659mm" viewBox="0.00080 0.00025 497.94659 574.55764" version="1.1" stroke="black" stroke-width=".1" fill="none" xmlns="http://www.w3.org/2000/svg">
<path fill="#000000" stroke="#000000" d="M376.09581 285.52907 L379.36385 285.52907 L392.08651 285.52907 L442.08651 285.52907 L487.11538 285.52907 L489.05656 285.52907 L490.88049 285.52907 L492.69830 285.52907 L494.18108 285.52907 L495.66741 285.52907 L496.63814 285.52907 L497.60953 285.52907 L497.94739 285.52907 L497.94739 287.27907 L497.94739 289.02907 L497.60953 289.02907 L496.63814 289.02907 L495.66741 289.02907 L494.18108 289.02907 L492.69830 289.02907 L490.88049 289.02907 L489.05656 289.02907 L487.11538 289.02907 L437.11538 289.02907 L392.08651 289.02907 L389.99052 289.02907 L379.36385 289.02907 L376.09581 289.02907 L376.09581 289.00499 z"/>
<path fill="#000000" stroke="#000000" d="M0.00080 1.75219 L1.51579 0.87622 L3.03077 0.00025 L3.19989 0.29274 L3.68613 1.13368 L4.17203 1.97404 L4.91602 3.26077 L5.65823 4.54442 L6.56815 6.11811 L7.48112 7.69709 L8.45279 9.37757 L33.48053 52.66281 L56.01996 91.64452 L57.06912 93.45903 L62.38835 102.65859 L64.02418 105.48774 L64.00333 105.49980 L60.99421 107.23969 L59.35839 104.41054 L52.98999 93.39646 L27.96225 50.11123 L5.42282 11.12951 L4.45116 9.44903 L3.53818 7.87005 L2.62827 6.29636 L1.88605 5.01271 L1.14206 3.72599 L0.65616 2.88562 L0.16992 2.04468 z"/>
<path fill="#000000" stroke="#000000" d="M62.38835 471.89955 L56.01996 482.91362 L30.99221 526.19886 L8.45279 565.18057 L7.48112 566.86105 L6.56815 568.44003 L5.65823 570.01372 L4.91602 571.29737 L4.17203 572.58410 L3.68613 573.42446 L3.19989 574.26540 L3.03077 574.55789 L1.51579 573.68192 L0.00080 572.80595 L0.16992 572.51346 L0.65616 571.67252 L1.14206 570.83215 L1.88605 569.54543 L2.62827 568.26178 L3.53818 566.68809 L4.45116 565.10911 L5.42282 563.42863 L30.45057 520.14339 L52.98999 481.16168 L54.03915 479.34717 L59.35839 470.14760 L60.99421 467.31845 L61.01506 467.33051 L64.02418 469.07040 z"/>
</svg>