<?xml version="1.0" encoding="UTF-8"?>
<!-- Generated by jsxcad -->
<!DOCTYPE svg PUBLIC "-//W3C//DTD SVG 1.1 Tiny//EN" "http://www.w3.org/Graphics/SVG/1.1/DTD/svg11-tiny.dtd">
<svg baseProfile="tiny" height="75.00000mm" width="124.89207mm" viewBox="0.00079 25.00000 124.89207 75.00000" version="1.1" stroke="black" stroke-width=".1" fill="none" xmlns="http://www.w3.org/2000/svg">
<path fill="#000000" stroke="#000000" d="M0.00079 47.67944 L0.84776 43.15650 L2.51581 38.85246 L4.96017 34.91067 L8.06028 31.51584 L11.75463 28.73061 L15.88397 26.67962 L20.28160 25.42895 L24.89286 25.00000 L29.50412 25.42895 L33.90174 26.67962 L38.03108 28.73061 L41.72544 31.51584 L44.82554 34.91067 L47.26991 38.85246 L48.93795 43.15650 L49.78492 47.67944 L49.78492 52.32056 L48.93795 56.84350 L47.26991 61.14754 L44.82554 65.08933 L41.72544 68.48416 L38.03108 71.26939 L33.90174 73.32038 L29.50412 74.57105 L24.89286 75.00000 L20.28160 74.57105 L15.88397 73.32038 L11.75463 71.26939 L8.06028 68.48416 L4.96017 65.08933 L2.51581 61.14754 L0.84776 56.84350 L0.00079 52.32056 z M47.78492 52.13571 L47.78492 49.46607 L47.78492 47.86429 L47.29834 45.26590 L47.00640 43.70686 L46.04526 41.22685 L45.46858 39.73884 L44.06528 37.47587 L43.22330 36.11809 L41.44012 34.16539 L40.37022 32.99377 L38.24894 31.39451 L36.97618 30.43495 L34.59602 29.25276 L33.16793 28.54345 L30.64120 27.82486 L29.12516 27.39370 L26.47997 27.14764 L24.89286 27.00000 L22.24767 27.24606 L20.66056 27.39370 L18.13383 28.11230 L16.61779 28.54345 L14.23763 29.72564 L12.80954 30.43495 L10.68826 32.03422 L9.41550 32.99377 L7.63232 34.94647 L6.56242 36.11809 L5.15912 38.38106 L4.31714 39.73884 L3.35600 42.21885 L2.77932 43.70686 L2.29274 46.30526 L2.00079 47.86429 L2.00079 50.53393 L2.00079 52.13571 L2.48737 54.73410 L2.77932 56.29314 L3.74045 58.77315 L4.31714 60.26116 L5.72044 62.52413 L6.56242 63.88191 L8.34559 65.83461 L9.41550 67.00623 L11.53677 68.60549 L12.80954 69.56505 L15.18969 70.74724 L16.61779 71.45655 L19.14452 72.17514 L20.66056 72.60630 L23.30574 72.85236 L24.89286 73.00000 L27.53805 72.75394 L29.12516 72.60630 L31.65189 71.88770 L33.16793 71.45655 L35.54808 70.27436 L36.97618 69.56505 L39.09745 67.96578 L40.37022 67.00623 L42.15339 65.05353 L43.22330 63.88191 L44.62660 61.61894 L45.46858 60.26116 L46.42971 57.78115 L47.00640 56.29314 L47.49298 53.69474 z"/>
<path fill="#000000" stroke="#000000" d="M2.00079 47.86429 L2.29274 46.30526 L2.77932 43.70686 L3.35600 42.21885 L4.31714 39.73884 L5.15912 38.38106 L6.56242 36.11809 L7.63232 34.94647 L9.41550 32.99377 L10.68826 32.03422 L12.80954 30.43495 L14.23763 29.72564 L16.61779 28.54345 L18.13383 28.11230 L20.66056 27.39370 L22.24767 27.24606 L24.89286 27.00000 L26.47997 27.14764 L29.12516 27.39370 L30.64120 27.82486 L33.16793 28.54345 L34.59602 29.25276 L36.97618 30.43495 L38.24894 31.39451 L40.37022 32.99377 L41.44012 34.16539 L43.22330 36.11809 L44.06528 37.47587 L45.46858 39.73884 L46.04526 41.22685 L47.00640 43.70686 L47.29834 45.26590 L47.78492 47.86429 L47.78492 49.46607 L47.78492 52.13571 L47.49298 53.69474 L47.00640 56.29314 L46.42971 57.78115 L45.46858 60.26116 L44.62660 61.61894 L43.22330 63.88191 L42.15339 65.05353 L40.37022 67.00623 L39.09745 67.96578 L36.97618 69.56505 L35.54808 70.27436 L33.16793 71.45655 L31.65189 71.88770 L29.12516 72.60630 L27.53805 72.75394 L24.89286 73.00000 L23.30574 72.85236 L20.66056 72.60630 L19.14452 72.17514 L16.61779 71.45655 L15.18969 70.74724 L12.80954 69.56505 L11.53677 68.60549 L9.41550 67.00623 L8.34559 65.83461 L6.56242 63.88191 L5.72044 62.52413 L4.31714 60.26116 L3.74045 58.77315 L2.77932 56.29314 L2.48737 54.73410 L2.00079 52.13571 L2.00079 50.53393 z"/>
<path fill="#000000" stroke="#000000" d="M24.89286 75.00000 L124.89286 75.00000 L124.89286 100.00000 L24.89286 100.00000 z"/>
</svg>