<?xml version="1.0" encoding="UTF-8"?>
<!-- Generated by jsxcad -->
<!DOCTYPE svg PUBLIC "-//W3C//DTD SVG 1.1 Tiny//EN" "http://www.w3.org/Graphics/SVG/1.1/DTD/svg11-tiny.dtd">
<svg baseProfile="tiny" height="581.81423mm" width="504.22169mm" viewBox="0.00079 -0.00087 504.22169 581.81423" version="1.1" stroke="black" stroke-width=".1" fill="none" xmlns="http://www.w3.org/2000/svg">
<path fill="#000000" stroke="#000000" d="M382.37265 281.90625 L385.63924 281.90625 L448.36197 281.90625 L493.39130 281.90625 L502.61697 281.90625 L504.22247 281.90625 L504.22247 290.90625 L504.22247 299.90625 L502.61697 299.90625 L493.39130 299.90625 L448.36197 299.90625 L398.36197 299.90625 L385.63924 299.90625 L382.37265 299.90625 L382.37265 299.78246 z"/>
<path fill="#000000" stroke="#000000" d="M0.00079 9.00912 L7.79213 4.50413 L15.58347 -0.00087 L16.38712 1.38903 L21.00507 9.37573 L43.54472 48.35784 L68.57247 91.64308 L74.94089 102.65720 L76.57600 105.48510 L76.46883 105.54707 L60.99331 114.49509 L59.35821 111.66719 L27.96204 57.36783 L5.42238 18.38572 L0.80443 10.39902 z"/>
<path fill="#000000" stroke="#000000" d="M74.94089 479.15530 L43.54472 533.45466 L21.00507 572.43677 L16.38712 580.42347 L15.58347 581.81337 L7.79213 577.30837 L0.00079 572.80338 L0.80443 571.41348 L5.42238 563.42678 L27.96204 524.44467 L52.98978 481.15943 L59.35821 470.14531 L60.99331 467.31741 L61.10048 467.37937 L76.57600 476.32740 z"/>
</svg>