<?xml version="1.0" encoding="UTF-8"?>
<!-- Generated by jsxcad -->
<!DOCTYPE svg PUBLIC "-//W3C//DTD SVG 1.1 Tiny//EN" "http://www.w3.org/Graphics/SVG/1.1/DTD/svg11-tiny.dtd">
<svg baseProfile="tiny" height="75.00000mm" width="124.89207mm" viewBox="0.00079 25.00000 124.89207 75.00000" version="1.1" stroke="black" stroke-width=".1" fill="none" xmlns="http://www.w3.org/2000/svg">
<path fill="#000000" stroke="#000000" d="M24.89286 75.00000 L124.89286 75.00000 L124.89286 100.00000 L24.89286 100.00000 z"/>
<path fill="#000000" stroke="#000000" d="M0.00079 47.67944 L0.84776 43.15650 L2.51581 38.85246 L4.96017 34.91067 L8.06028 31.51584 L11.75463 28.73061 L15.88397 26.67962 L20.28160 25.42895 L24.89286 25.00000 L29.50412 25.42895 L33.90174 26.67962 L38.03108 28.73061 L41.72544 31.51584 L44.82554 34.91067 L47.26991 38.85246 L48.93795 43.15650 L49.78492 47.67944 L49.78492 52.32056 L48.93795 56.84350 L47.26991 61.14754 L44.82554 65.08933 L41.72544 68.48416 L38.03108 71.26939 L33.90174 73.32038 L29.50412 74.57105 L24.89286 75.00000 L20.28160 74.57105 L15.88397 73.32038 L11.75463 71.26939 L8.06028 68.48416 L4.96017 65.08933 L2.51581 61.14754 L0.84776 56.84350 L0.00079 52.32056 z M47.78492 52.13571 L47.78492 47.86429 L47.00640 43.70686 L45.46858 39.73884 L43.22330 36.11809 L40.37022 32.99377 L36.97618 30.43495 L33.16793 28.54345 L29.12516 27.39370 L24.89286 27.00000 L20.66056 27.39370 L16.61779 28.54345 L12.80954 30.43495 L9.41550 32.99377 L6.56242 36.11809 L4.31714 39.73884 L2.77932 43.70686 L2.00079 47.86429 L2.00079 52.13571 L2.77932 56.29314 L4.31714 60.26116 L6.56242 63.88191 L9.41550 67.00623 L12.80954 69.56505 L16.61779 71.45655 L20.66056 72.60630 L24.89286 73.00000 L29.12516 72.60630 L33.16793 71.45655 L36.97618 69.56505 L40.37022 67.00623 L43.22330 63.88191 L45.46858 60.26116 L47.00640 56.29314 z"/>
<path fill="#000000" stroke="#000000" d="M2.00079 47.86429 L2.77932 43.70686 L4.31714 39.73884 L6.56242 36.11809 L9.41550 32.99377 L12.80954 30.43495 L16.61779 28.54345 L20.66056 27.39370 L24.89286 27.00000 L29.12516 27.39370 L33.16793 28.54345 L36.97618 30.43495 L40.37022 32.99377 L43.22330 36.11809 L45.46858 39.73884 L47.00640 43.70686 L47.78492 47.86429 L47.78492 52.13571 L47.00640 56.29314 L45.46858 60.26116 L43.22330 63.88191 L40.37022 67.00623 L36.97618 69.56505 L33.16793 71.45655 L29.12516 72.60630 L24.89286 73.00000 L20.66056 72.60630 L16.61779 71.45655 L12.80954 69.56505 L9.41550 67.00623 L6.56242 63.88191 L4.31714 60.26116 L2.77932 56.29314 L2.00079 52.13571 z"/>
</svg>