<?xml version="1.0" encoding="UTF-8"?>
<!-- Generated by jsxcad -->
<!DOCTYPE svg PUBLIC "-//W3C//DTD SVG 1.1 Tiny//EN" "http://www.w3.org/Graphics/SVG/1.1/DTD/svg11-tiny.dtd">
<svg baseProfile="tiny" height="68.94895mm" width="68.98679mm" viewBox="-0.00087 23.05105 68.98679 68.94895" version="1.1" stroke="black" stroke-width=".1" fill="none" xmlns="http://www.w3.org/2000/svg">
<path fill="#000000" stroke="#000000" d="M0.00177 45.19424 L0.30316 42.19310 L0.30937 42.16696 L1.01823 39.18671 L1.02778 39.16191 L2.11578 36.33370 L2.12862 36.31023 L3.59232 33.63520 L3.60836 33.61343 L5.43743 31.13222 L5.45601 31.11305 L7.57354 28.92784 L7.59433 28.91143 L9.96422 27.04121 L9.98733 27.02753 L12.62111 25.46781 L12.64551 25.45746 L15.42719 24.27753 L15.45292 24.27046 L18.38638 23.46460 L18.41306 23.46100 L21.45428 23.05105 L21.48092 23.05105 L24.51755 23.05105 L24.54422 23.05465 L27.58545 23.46460 L27.61118 23.47167 L30.54464 24.27753 L30.56904 24.28788 L33.35072 25.46781 L33.37383 25.48149 L36.00761 27.04121 L36.02840 27.05762 L38.39829 28.92784 L38.41686 28.94700 L40.53440 31.13222 L40.55044 31.15399 L42.37952 33.63520 L42.39235 33.65867 L43.85605 36.33370 L43.86560 36.35851 L44.95360 39.18671 L44.95982 39.21286 L45.66867 42.19310 L45.67132 42.21943 L45.97270 45.22056 L45.97182 45.24729 L45.87120 48.29426 L45.86674 48.32073 L45.35793 51.33788 L45.35001 51.36340 L44.44697 54.27182 L44.43568 54.29613 L43.14816 57.06724 L43.13396 57.08950 L41.51468 59.62663 L41.49725 59.64725 L39.51051 61.99805 L39.49094 62.01577 L37.25910 64.03541 L37.23710 64.05055 L34.72850 65.77655 L34.70462 65.78864 L31.98295 67.16727 L31.95760 67.17609 L29.06801 68.18126 L29.04167 68.18661 L26.03901 68.79646 L26.01246 68.79823 L22.98592 69.00000 L22.95937 68.99823 L19.93282 68.79646 L19.90648 68.79111 L16.90382 68.18126 L16.87848 68.17244 L13.98888 67.16727 L13.96500 67.15518 L11.24333 65.77655 L11.22133 65.76141 L8.71273 64.03541 L8.69315 64.01770 L6.46132 61.99805 L6.44389 61.97743 L4.45715 59.62663 L4.44295 59.60437 L2.82367 57.06724 L2.81238 57.04293 L1.52486 54.27182 L1.51694 54.24631 L0.61390 51.33788 L0.60944 51.31142 L0.10063 48.29426 L0.09975 48.26754 L-0.00087 45.22056 z M43.97252 45.22602 L43.80810 43.58871 L43.70714 42.58335 L43.29521 40.85149 L43.04227 39.78807 L42.40565 38.13320 L42.01474 37.11705 L41.21104 35.64822 L40.71754 34.74631 L39.66327 33.31614 L39.01591 32.43797 L37.78108 31.16368 L37.02286 30.38122 L35.70544 29.34157 L34.89650 28.70319 L33.39631 27.81478 L32.47515 27.26927 L30.84750 26.57886 L29.84807 26.15492 L28.20445 25.70339 L27.19521 25.42614 L25.47122 25.19375 L24.41263 25.05105 L22.64474 25.05105 L21.55920 25.05105 L19.83521 25.28344 L18.77662 25.42614 L17.13300 25.87766 L16.12376 26.15492 L14.49611 26.84533 L13.49668 27.26927 L11.99650 28.15767 L11.07533 28.70319 L9.75791 29.74284 L8.94897 30.38122 L7.71415 31.65551 L6.95592 32.43797 L5.90165 33.86814 L5.25429 34.74631 L4.45059 36.21514 L3.95709 37.11705 L3.32047 38.77192 L2.92956 39.78807 L2.51763 41.51993 L2.26470 42.58335 L2.10027 44.22066 L1.99931 45.22602 L2.05796 47.00205 L2.09397 48.09260 L2.38991 49.84745 L2.57162 50.92499 L3.06834 52.52479 L3.37334 53.50712 L4.12072 55.11568 L4.57963 56.10339 L5.51887 57.57502 L6.09560 58.47865 L7.19812 59.78321 L7.87511 60.58426 L9.15596 61.74334 L9.94245 62.45505 L11.39913 63.45729 L12.29359 64.07270 L13.81772 64.84473 L14.75358 65.31879 L16.40122 65.89193 L17.41293 66.24386 L19.15943 66.59858 L20.23185 66.81640 L21.93817 66.93015 L22.98592 67.00000 L24.69224 66.88624 L25.73998 66.81640 L27.48649 66.46167 L28.55890 66.24386 L30.20654 65.67072 L31.21825 65.31879 L32.74238 64.54676 L33.67824 64.07270 L35.13493 63.07046 L36.02938 62.45505 L37.31023 61.29597 L38.09672 60.58426 L39.19925 59.27970 L39.87624 58.47865 L40.81548 57.00702 L41.39220 56.10339 L42.13957 54.49483 L42.59849 53.50712 L43.09521 51.90732 L43.40021 50.92499 L43.69615 49.17014 L43.87786 48.09260 L43.93651 46.31657 z"/>
<path fill="#000000" stroke="#000000" d="M1.99931 45.22602 L2.10027 44.22066 L2.26470 42.58335 L2.51763 41.51993 L2.92956 39.78807 L3.32047 38.77192 L3.95709 37.11705 L4.45059 36.21514 L5.25429 34.74631 L5.90165 33.86814 L6.95592 32.43797 L7.71415 31.65551 L8.94897 30.38122 L9.75791 29.74284 L11.07533 28.70319 L11.99650 28.15767 L13.49668 27.26927 L14.49611 26.84533 L16.12376 26.15492 L17.13300 25.87766 L18.77662 25.42614 L19.83521 25.28344 L21.55920 25.05105 L22.64474 25.05105 L24.41263 25.05105 L25.47122 25.19375 L27.19521 25.42614 L28.20445 25.70339 L29.84807 26.15492 L30.84750 26.57886 L32.47515 27.26927 L33.39631 27.81478 L34.89650 28.70319 L35.70544 29.34157 L37.02286 30.38122 L37.78108 31.16368 L39.01591 32.43797 L39.66327 33.31614 L40.71754 34.74631 L41.21104 35.64822 L42.01474 37.11705 L42.40565 38.13320 L43.04227 39.78807 L43.29521 40.85149 L43.70714 42.58335 L43.80810 43.58871 L43.97252 45.22602 L43.93651 46.31657 L43.87786 48.09260 L43.69615 49.17014 L43.40021 50.92499 L43.09521 51.90732 L42.59849 53.50712 L42.13957 54.49483 L41.39220 56.10339 L40.81548 57.00702 L39.87624 58.47865 L39.19925 59.27970 L38.09672 60.58426 L37.31023 61.29597 L36.02938 62.45505 L35.13493 63.07046 L33.67824 64.07270 L32.74238 64.54676 L31.21825 65.31879 L30.20654 65.67072 L28.55890 66.24386 L27.48649 66.46167 L25.73998 66.81640 L24.69224 66.88624 L22.98592 67.00000 L21.93817 66.93015 L20.23185 66.81640 L19.15943 66.59858 L17.41293 66.24386 L16.40122 65.89193 L14.75358 65.31879 L13.81772 64.84473 L12.29359 64.07270 L11.39913 63.45729 L9.94245 62.45505 L9.15596 61.74334 L7.87511 60.58426 L7.19812 59.78321 L6.09560 58.47865 L5.51887 57.57502 L4.57963 56.10339 L4.12072 55.11568 L3.37334 53.50712 L3.06834 52.52479 L2.57162 50.92499 L2.38991 49.84745 L2.09397 48.09260 L2.05796 47.00205 z"/>
<path fill="#000000" stroke="#000000" d="M24.38592 92.00000 L22.98592 92.00000 L23.11895 91.99367 L27.35696 91.79186 L27.48819 91.77302 L31.66906 91.17303 L31.80041 91.14114 L35.98474 90.12517 L36.23787 90.03755 L37.45663 89.61569 L40.04726 88.71897 L41.24837 88.17128 L44.05096 86.89332 L45.20279 86.22787 L47.89037 84.67516 L48.95061 83.91938 L51.42449 82.15588 L52.41016 81.30222 L54.71005 79.31034 L56.85427 77.06117 L57.77322 76.09723 L59.64010 73.72293 L60.44020 72.70537 L61.20843 71.51161 L61.91887 70.40766 L62.76790 69.08835 L62.80834 69.02553 L62.80874 69.02475 L62.82150 69.00000 L68.79830 69.00000 L68.98592 69.00000 L68.98592 70.40000 L68.98592 77.30000 L68.98592 90.60000 L68.98592 92.00000 z"/>
</svg>