<?xml version="1.0" encoding="UTF-8"?>
<!-- Generated by jsxcad -->
<!DOCTYPE svg PUBLIC "-//W3C//DTD SVG 1.1 Tiny//EN" "http://www.w3.org/Graphics/SVG/1.1/DTD/svg11-tiny.dtd">
<svg baseProfile="tiny" height="66.89593mm" width="66.96952mm" viewBox="-0.00077 25.10407 66.96952 66.89593" version="1.1" stroke="black" stroke-width=".1" fill="none" xmlns="http://www.w3.org/2000/svg">
<path fill="#000000" stroke="#000000" d="M41.72682 48.46785 L41.36610 50.96895 L40.88518 52.35719 L40.06478 54.72536 L39.32485 56.00646 L38.06263 58.19187 L37.09507 59.30714 L35.44454 61.20967 L34.29686 62.11251 L32.33905 63.65265 L31.01261 64.33655 L28.74985 65.50320 L27.33692 65.91706 L24.92663 66.62306 L23.46394 66.76236 L20.96875 67.00000 L19.50605 66.86070 L17.01087 66.62306 L15.59794 66.20920 L13.18765 65.50320 L11.86121 64.81930 L9.59845 63.65265 L8.45077 62.74981 L6.49296 61.20967 L5.52541 60.09440 L3.87487 58.19187 L3.13495 56.91077 L1.87272 54.72536 L1.39180 53.33713 L0.57140 50.96895 L0.35994 49.50279 L-0.00077 47.00169 L0.06919 45.52996 L0.18854 43.01936 L0.53898 41.57741 L1.13679 39.11760 L1.75065 37.77636 L2.79782 35.48837 L3.64523 34.29820 L5.09081 32.26792 L6.16262 31.24508 L7.99101 29.50023 L9.23238 28.70266 L11.35000 27.34210 L12.71289 26.79604 L15.03781 25.86452 L16.49263 25.58349 L18.97437 25.10407 L20.44848 25.10407 L22.96313 25.10407 L24.41794 25.38511 L26.89969 25.86452 L28.26257 26.41058 L30.58750 27.34210 L31.82886 28.13967 L33.94649 29.50023 L35.01830 30.52307 L36.84669 32.26792 L37.69410 33.45809 L39.13968 35.48837 L39.75354 36.82961 L40.80071 39.11760 L41.15115 40.55956 L41.74896 43.01936 L41.81892 44.49109 L41.93827 47.00169 z"/>
<path fill="#000000" stroke="#000000" d="M20.96875 92.00000 L27.07494 91.59292 L33.13293 90.36251 L38.96282 88.33454 L44.45391 85.55309 L49.51512 82.07083 L54.01795 77.99610 L58.02628 73.25325 L60.74084 69.00000 L66.96875 69.00000 L66.96875 92.00000 z"/>
</svg>