<?xml version="1.0" encoding="UTF-8"?>
<!-- Generated by jsxcad -->
<!DOCTYPE svg PUBLIC "-//W3C//DTD SVG 1.1 Tiny//EN" "http://www.w3.org/Graphics/SVG/1.1/DTD/svg11-tiny.dtd">
<svg baseProfile="tiny" height="581.81423mm" width="661.66234mm" viewBox="-330.83117 -290.90712 661.66234 581.81423" version="1.1" stroke="black" stroke-width=".1" fill="none" xmlns="http://www.w3.org/2000/svg">
<path fill="#ff9065" stroke="#ff9065" d="M208.98135 -590.81481 L209.16883 -590.81481 L209.16883 -590.81481 L209.16883 -590.81481 L208.98135 -590.81481 L208.98135 -590.81481 z"/>
<path fill="#ff9065" stroke="#ff9065" d="M209.16883 -590.81481 L210.77434 -590.81481 L220.00000 -590.81481 L270.00000 -590.81481 L320.00000 -590.81481 L329.22566 -590.81481 L330.83117 -590.81481 L330.83117 -590.81481 L330.83117 -590.81481 L329.22566 -590.81481 L320.00000 -590.81481 L270.00000 -590.81481 L220.00000 -590.81481 L210.77434 -590.81481 L209.16883 -590.81481 L209.16883 -590.81481 z"/>
<path fill="#ff9065" stroke="#ff9065" d="M-96.90915 -396.23136 L-96.90915 -396.23136 L-96.90915 -396.23136 L-96.81530 -396.39367 L-96.81530 -396.39367 L-96.81530 -396.39367 z"/>
<path fill="#ff9065" stroke="#ff9065" d="M-157.80783 -290.90770 L-157.80783 -290.90770 L-157.80783 -290.90770 L-157.00419 -292.29759 L-152.38624 -300.28429 L-127.35849 -343.56953 L-102.33074 -386.85477 L-97.71279 -394.84147 L-96.90915 -396.23136 L-96.90915 -396.23136 L-96.90915 -396.23136 L-97.71279 -394.84147 L-102.33074 -386.85477 L-127.35849 -343.56953 L-152.38624 -300.28429 L-157.00419 -292.29759 z"/>
<path fill="#ff9065" stroke="#ff9065" d="M-112.39799 -758.22597 L-112.39799 -758.22597 L-112.39799 -758.22597 L-112.49183 -758.38828 L-112.49183 -758.38828 L-112.49183 -758.38828 z"/>
<path fill="#ff9065" stroke="#ff9065" d="M-113.29548 -759.77817 L-117.91343 -767.76487 L-142.94118 -811.05011 L-167.96892 -854.33535 L-172.58687 -862.32205 L-173.39052 -863.71194 L-173.39052 -863.71194 L-173.39052 -863.71194 L-172.58687 -862.32205 L-167.96892 -854.33535 L-142.94118 -811.05011 L-117.91343 -767.76487 L-113.29548 -759.77817 L-112.49183 -758.38828 L-112.49183 -758.38828 L-112.49183 -758.38828 z"/>
</svg>