<?xml version="1.0" encoding="UTF-8"?>
<!-- Generated by jsxcad -->
<!DOCTYPE svg PUBLIC "-//W3C//DTD SVG 1.1 Tiny//EN" "http://www.w3.org/Graphics/SVG/1.1/DTD/svg11-tiny.dtd">
<svg baseProfile="tiny" height="578.85294mm" width="501.66149mm" viewBox="-0.00077 -0.00094 501.66149 578.85294" version="1.1" stroke="black" stroke-width=".1" fill="none" xmlns="http://www.w3.org/2000/svg">
<path fill="#000000" stroke="#000000" d="M379.66071 283.67553 L393.24420 283.67553 L395.62205 283.67553 L445.62205 283.67553 L490.66071 283.67553 L491.73915 283.67553 L492.79704 283.67553 L493.85946 283.67553 L494.86046 283.67553 L495.86375 283.67553 L496.76669 283.67553 L497.67385 283.67553 L498.44447 283.67553 L499.20946 283.67553 L499.81042 283.67553 L500.41298 283.67553 L500.82743 283.67553 L501.24093 283.67553 L501.45127 283.67553 L501.66071 283.67553 L501.66071 295.17553 L501.45127 295.17553 L501.24093 295.17553 L500.82743 295.17553 L500.41298 295.17553 L499.81042 295.17553 L499.20946 295.17553 L498.44447 295.17553 L497.67385 295.17553 L496.76669 295.17553 L495.86375 295.17553 L494.86046 295.17553 L493.85946 295.17553 L492.79704 295.17553 L491.73915 295.17553 L490.66071 295.17553 L445.62205 295.17553 L395.62205 295.17553 L394.49594 295.17553 L386.04477 295.17553 L380.07787 295.17553 L380.07637 295.17553 L379.66071 295.17553 z"/>
<path fill="#000000" stroke="#000000" d="M-0.00077 5.75544 L9.95483 -0.00094 L10.05967 0.18038 L10.16496 0.36247 L10.37194 0.72044 L10.57939 1.07923 L10.88101 1.60087 L11.18182 2.12112 L11.56474 2.78338 L11.95048 3.45051 L12.40456 4.23585 L12.85653 5.01752 L13.35873 5.88607 L13.85979 6.75264 L14.39159 7.67238 L14.92112 8.58821 L15.46094 9.52181 L38.00526 48.51200 L63.03301 91.79724 L63.59669 92.77212 L67.82696 100.08833 L70.81373 105.25391 L70.81448 105.25521 L71.02253 105.61504 L61.06693 111.37143 L54.26765 99.61214 L53.07740 97.55362 L28.04965 54.26838 L5.50533 15.27820 L4.96552 14.34459 L4.43598 13.42877 L3.90418 12.50902 L3.40313 11.64246 L2.90092 10.77390 L2.44896 9.99223 L1.99487 9.20689 L1.60913 8.53976 L1.22621 7.87750 L0.92540 7.35725 L0.62379 6.83561 L0.41633 6.47682 L0.20935 6.11885 L0.10407 5.93676 z"/>
<path fill="#000000" stroke="#000000" d="M64.22325 484.99531 L63.03301 487.05383 L38.00526 530.33907 L15.46094 569.32925 L14.92112 570.26285 L14.39159 571.17868 L13.85979 572.09842 L13.35873 572.96499 L12.85653 573.83355 L12.40456 574.61522 L11.95048 575.40055 L11.56474 576.06769 L11.18182 576.72994 L10.88101 577.25019 L10.57939 577.77184 L10.37194 578.13063 L10.16496 578.48859 L10.05967 578.67069 L9.95483 578.85200 L-0.00077 573.09562 L0.10407 572.91430 L0.20935 572.73221 L0.41633 572.37424 L0.62379 572.01545 L0.92540 571.49381 L1.22621 570.97356 L1.60913 570.31130 L1.99487 569.64417 L2.44896 568.85884 L2.90092 568.07716 L3.40313 567.20861 L3.90418 566.34204 L4.43598 565.42230 L4.96552 564.50647 L5.50533 563.57287 L28.04965 524.58269 L53.07740 481.29745 L53.64109 480.32256 L57.87136 473.00635 L60.85812 467.84077 L60.85887 467.83947 L61.06693 467.47964 L71.02253 473.23602 z"/>
</svg>