<?xml version="1.0" encoding="UTF-8"?>
<!-- Generated by jsxcad -->
<!DOCTYPE svg PUBLIC "-//W3C//DTD SVG 1.1 Tiny//EN" "http://www.w3.org/Graphics/SVG/1.1/DTD/svg11-tiny.dtd">
<svg baseProfile="tiny" height="65.84593mm" width="65.94876mm" viewBox="-0.00004 26.15407 65.94876 65.84593" version="1.1" stroke="black" stroke-width=".1" fill="none" xmlns="http://www.w3.org/2000/svg">
<path fill="#000000" stroke="#000000" d="M-0.00004 44.84566 L0.29816 43.15627 L0.80685 40.27437 L1.49169 38.68754 L2.65994 35.98061 L3.67693 34.61369 L5.41180 32.28188 L6.71351 31.18696 L8.93409 29.31916 L10.46643 28.54823 L13.08044 27.23311 L14.76399 26.83434 L17.63594 26.15407 L19.34539 26.15407 L22.26149 26.15407 L23.94505 26.55285 L26.81700 27.23311 L28.34935 28.00404 L30.96335 29.31916 L32.26506 30.41408 L34.48564 32.28188 L35.50263 33.64880 L37.23749 35.98061 L37.92233 37.56743 L39.09059 40.27437 L39.38879 41.96376 L39.89748 44.84566 L39.79716 46.57068 L39.62602 49.51336 L39.13828 51.13881 L38.30626 53.91164 L37.45730 55.38275 L36.00906 57.89229 L34.81708 59.15647 L32.78370 61.31300 L31.34943 62.25541 L28.90274 63.86305 L27.28451 64.45137 L24.52398 65.45497 L22.83313 65.65224 L19.94872 65.98875 L18.25786 65.79149 L15.37345 65.45497 L13.75521 64.86665 L10.99469 63.86305 L9.56043 62.92064 L7.11374 61.31300 L5.92175 60.04883 L3.88837 57.89229 L3.03941 56.42118 L1.59118 53.91164 L1.10344 52.28619 L0.27142 49.51336 L0.17110 47.78834 z"/>
<path fill="#000000" stroke="#000000" d="M20.69872 92.00000 L19.94872 92.00000 L20.07286 91.98966 L27.56251 91.36552 L29.58234 90.85345 L34.14804 89.69595 L34.86764 89.51351 L39.25041 87.58965 L41.88007 86.43533 L45.84983 83.83683 L48.23169 82.27773 L51.70545 79.07756 L53.78971 77.15746 L55.54766 74.89724 L58.47758 71.13020 L58.50395 71.08138 L59.22318 69.75000 L59.62834 69.00000 L65.84567 69.00000 L65.94872 69.00000 L65.94872 69.75000 L65.94872 84.12500 L65.94872 91.25000 L65.94872 92.00000 z"/>
</svg>