<?xml version="1.0" encoding="UTF-8"?>
<!-- Generated by jsxcad -->
<!DOCTYPE svg PUBLIC "-//W3C//DTD SVG 1.1 Tiny//EN" "http://www.w3.org/Graphics/SVG/1.1/DTD/svg11-tiny.dtd">
<svg baseProfile="tiny" height="578.10211mm" width="501.01221mm" viewBox="0.00095 0.00023 501.01221 578.10211" version="1.1" stroke="black" stroke-width=".1" fill="none" xmlns="http://www.w3.org/2000/svg">
<path fill="#000000" stroke="#000000" d="M379.01316 284.05128 L379.06173 284.05128 L379.06724 284.05128 L379.15351 284.05128 L382.59114 284.05128 L444.97450 284.05128 L490.01316 284.05128 L491.09159 284.05128 L492.14949 284.05128 L493.21191 284.05128 L494.21290 284.05128 L495.21620 284.05128 L496.11913 284.05128 L497.02629 284.05128 L497.79691 284.05128 L498.56190 284.05128 L499.16286 284.05128 L499.76543 284.05128 L500.17988 284.05128 L500.59337 284.05128 L500.80371 284.05128 L501.01316 284.05128 L501.01316 294.05128 L500.80371 294.05128 L500.59337 294.05128 L500.17988 294.05128 L499.76543 294.05128 L499.16286 294.05128 L498.56190 294.05128 L497.79691 294.05128 L497.02629 294.05128 L496.11913 294.05128 L495.21620 294.05128 L494.21290 294.05128 L493.21191 294.05128 L492.14949 294.05128 L491.09159 294.05128 L490.01316 294.05128 L440.01316 294.05128 L438.45414 294.05128 L393.84838 294.05128 L392.59664 294.05128 L391.18558 294.05128 L387.67133 294.05128 L385.39722 294.05128 L379.42882 294.05128 L379.01316 294.05128 z"/>
<path fill="#000000" stroke="#000000" d="M0.00095 5.00578 L8.65800 0.00023 L8.76284 0.18154 L8.86812 0.36364 L9.07510 0.72160 L9.28256 1.08039 L9.58417 1.60204 L9.88498 2.12229 L10.26790 2.78455 L10.65364 3.45168 L11.10773 4.23701 L11.55969 5.01868 L12.06190 5.88724 L12.56295 6.75381 L13.09475 7.67355 L13.62429 8.58938 L14.16410 9.52298 L39.19185 52.80822 L39.97222 54.15787 L62.29986 92.77329 L62.92642 93.85692 L63.63273 95.07849 L65.39181 98.12078 L66.53013 100.08950 L69.51764 105.25637 L69.72570 105.61621 L61.06865 110.62176 L61.04434 110.57971 L61.04158 110.57494 L60.99840 110.50026 L59.27767 107.52428 L28.05138 53.51871 L5.50705 14.52853 L4.96724 13.59493 L4.43770 12.67910 L3.90590 11.75936 L3.40485 10.89279 L2.90265 10.02423 L2.45068 9.24256 L1.99660 8.45723 L1.61086 7.79009 L1.22794 7.12784 L0.92712 6.60759 L0.62551 6.08594 L0.41805 5.72715 L0.21107 5.36919 L0.10579 5.18709 z"/>
<path fill="#000000" stroke="#000000" d="M69.70138 472.52841 L69.69863 472.53318 L69.65545 472.60786 L67.93472 475.58383 L36.70842 529.58940 L14.16410 568.57958 L13.62429 569.51319 L13.09475 570.42901 L12.56295 571.34876 L12.06190 572.21532 L11.55969 573.08388 L11.10773 573.86555 L10.65364 574.65089 L10.26790 575.31802 L9.88498 575.98027 L9.58417 576.50053 L9.28256 577.02217 L9.07510 577.38096 L8.86812 577.73893 L8.76284 577.92102 L8.65800 578.10234 L0.00095 573.09679 L0.10579 572.91547 L0.21107 572.73338 L0.41805 572.37541 L0.62551 572.01662 L0.92712 571.49498 L1.22794 570.97473 L1.61086 570.31247 L1.99660 569.64534 L2.45068 568.86000 L2.90265 568.07833 L3.40485 567.20977 L3.90590 566.34321 L4.43770 565.42346 L4.96724 564.50764 L5.50705 563.57403 L30.53480 520.28880 L31.31517 518.93915 L53.64281 480.32373 L54.26937 479.24009 L54.97569 478.01853 L56.73476 474.97623 L57.87308 473.00751 L60.86059 467.84064 L61.06865 467.48080 L69.72570 472.48635 z"/>
</svg>