<?xml version="1.0" encoding="UTF-8"?>
<!-- Generated by jsxcad -->
<!DOCTYPE svg PUBLIC "-//W3C//DTD SVG 1.1 Tiny//EN" "http://www.w3.org/Graphics/SVG/1.1/DTD/svg11-tiny.dtd">
<svg baseProfile="tiny" height="581.31513mm" width="503.79010mm" viewBox="0.00025 -0.00042 503.79010 581.31513" version="1.1" stroke="black" stroke-width=".1" fill="none" xmlns="http://www.w3.org/2000/svg">
<path fill="#000000" stroke="#000000" d="M381.93876 282.15714 L382.87762 282.15714 L389.92871 282.15714 L419.97017 282.15714 L492.95833 282.15714 L499.30449 282.15714 L502.48109 282.15714 L503.45248 282.15714 L503.79034 282.15714 L503.79034 290.65714 L503.79034 299.15714 L503.45248 299.15714 L502.48109 299.15714 L499.30449 299.15714 L492.95833 299.15714 L447.92946 299.15714 L397.92946 299.15714 L389.92871 299.15714 L385.20679 299.15714 L381.93876 299.15714 L381.93876 299.04018 z"/>
<path fill="#000000" stroke="#000000" d="M0.00025 8.50901 L7.35874 4.25429 L14.71723 -0.00042 L14.88635 0.29207 L15.37258 1.13301 L16.96264 3.88300 L20.13924 9.37690 L42.67867 48.35861 L67.70642 91.64385 L71.71123 98.57013 L74.07481 102.65792 L75.71064 105.48707 L75.60938 105.54562 L60.99366 113.99650 L60.52371 113.18373 L56.99425 107.07957 L41.95685 81.07254 L5.42226 17.88633 L2.24566 12.39244 L0.65560 9.64244 L0.16937 8.80150 z"/>
<path fill="#000000" stroke="#000000" d="M75.24069 476.63999 L71.71123 482.74415 L56.67383 508.75118 L20.13924 571.93739 L16.96264 577.43128 L15.37258 580.18128 L14.88635 581.02222 L14.71723 581.31471 L7.35874 577.05999 L0.00025 572.80528 L0.16937 572.51279 L0.65560 571.67185 L2.24566 568.92185 L5.42226 563.42795 L27.96169 524.44624 L52.98943 481.16100 L56.99425 474.23472 L59.35783 470.14693 L60.99366 467.31778 L61.09491 467.37633 L75.71064 475.82722 z"/>
</svg>