<?xml version="1.0" encoding="UTF-8"?>
<!-- Generated by jsxcad -->
<!DOCTYPE svg PUBLIC "-//W3C//DTD SVG 1.1 Tiny//EN" "http://www.w3.org/Graphics/SVG/1.1/DTD/svg11-tiny.dtd">
<svg baseProfile="tiny" height="581.31513mm" width="503.79010mm" viewBox="0.00025 -0.00042 503.79010 581.31513" version="1.1" stroke="black" stroke-width=".1" fill="none" xmlns="http://www.w3.org/2000/svg">
<path fill="#000000" stroke="#000000" d="M381.93876 282.15714 L385.20679 282.15714 L395.83347 282.15714 L397.92946 282.15714 L447.92946 282.15714 L492.95833 282.15714 L494.89951 282.15714 L496.72343 282.15714 L498.54125 282.15714 L500.02403 282.15714 L501.51036 282.15714 L502.48109 282.15714 L503.45248 282.15714 L503.79034 282.15714 L503.79034 290.65714 L503.79034 299.15714 L503.45248 299.15714 L502.48109 299.15714 L501.51036 299.15714 L500.02403 299.15714 L498.54125 299.15714 L496.72343 299.15714 L494.89951 299.15714 L492.95833 299.15714 L442.95833 299.15714 L397.92946 299.15714 L395.83347 299.15714 L393.27212 299.15714 L384.99618 299.15714 L384.97438 299.15714 L382.87762 299.15714 L381.93876 299.15714 L381.93876 282.27411 z"/>
<path fill="#000000" stroke="#000000" d="M0.00025 8.50901 L7.35874 4.25429 L14.71723 -0.00042 L14.88635 0.29207 L15.37258 1.13301 L15.85849 1.97337 L16.60248 3.26009 L17.34469 4.54374 L18.25460 6.11743 L19.16758 7.69641 L20.13924 9.37690 L45.16699 52.66214 L67.70642 91.64385 L68.75557 93.45835 L70.03767 95.67573 L74.18023 102.84025 L74.19115 102.85913 L75.24069 104.67430 L75.71064 105.48707 L61.09491 113.93796 L60.99366 113.99650 L59.35783 111.16735 L54.03859 101.96779 L52.98943 100.15328 L27.96169 56.86804 L5.42226 17.88633 L4.45060 16.20585 L3.53762 14.62687 L2.62771 13.05318 L1.88549 11.76953 L1.14150 10.48281 L0.65560 9.64244 L0.16937 8.80150 z"/>
<path fill="#000000" stroke="#000000" d="M74.07481 478.65637 L68.75557 487.85593 L67.70642 489.67044 L42.67867 532.95568 L20.13924 571.93739 L19.16758 573.61787 L18.25460 575.19685 L17.34469 576.77054 L16.60248 578.05419 L15.85849 579.34091 L15.37258 580.18128 L14.88635 581.02222 L14.71723 581.31471 L7.35874 577.05999 L0.00025 572.80528 L0.16937 572.51279 L0.65560 571.67185 L1.14150 570.83148 L1.88549 569.54476 L2.62771 568.26111 L3.53762 566.68742 L4.45060 565.10844 L5.42226 563.42795 L30.45001 520.14271 L52.98943 481.16100 L54.03859 479.34650 L55.32069 477.12912 L59.46325 469.96461 L59.47416 469.94573 L60.52371 468.13056 L60.99366 467.31778 L75.60938 475.76867 L75.71064 475.82722 z"/>
</svg>