<?xml version="1.0" encoding="UTF-8" standalone="no"?>
<!-- Created with Inkscape (http://www.inkscape.org/) -->

<svg
   xmlns:dc="http://purl.org/dc/elements/1.1/"
   xmlns:cc="http://creativecommons.org/ns#"
   xmlns:rdf="http://www.w3.org/1999/02/22-rdf-syntax-ns#"
   xmlns:svg="http://www.w3.org/2000/svg"
   xmlns="http://www.w3.org/2000/svg"
   xmlns:sodipodi="http://sodipodi.sourceforge.net/DTD/sodipodi-0.dtd"
   xmlns:inkscape="http://www.inkscape.org/namespaces/inkscape"
   width="210mm"
   height="297mm"
   viewBox="0 0 210 297"
   version="1.1"
   id="svg8"
   inkscape:version="0.92.5 (2060ec1f9f, 2020-04-08)"
   sodipodi:docname="SutroTower.svg">
  <defs
     id="defs2" />
  <sodipodi:namedview
     id="base"
     pagecolor="#ffffff"
     bordercolor="#666666"
     borderopacity="1.0"
     inkscape:pageopacity="0.0"
     inkscape:pageshadow="2"
     inkscape:zoom="0.7"
     inkscape:cx="143.83187"
     inkscape:cy="553.79819"
     inkscape:document-units="mm"
     inkscape:current-layer="layer1"
     showgrid="false"
     inkscape:window-width="1366"
     inkscape:window-height="705"
     inkscape:window-x="-8"
     inkscape:window-y="-8"
     inkscape:window-maximized="1" />
  <metadata
     id="metadata5">
    <rdf:RDF>
      <cc:Work
         rdf:about="">
        <dc:format>image/svg+xml</dc:format>
        <dc:type
           rdf:resource="http://purl.org/dc/dcmitype/StillImage" />
        <dc:title></dc:title>
      </cc:Work>
    </rdf:RDF>
  </metadata>
  <g
     inkscape:label="Layer 1"
     inkscape:groupmode="layer"
     id="layer1">
    <path
       style="fill:none;stroke:#000000;stroke-width:0.26458332px;stroke-linecap:butt;stroke-linejoin:miter;stroke-opacity:1"
       d="M 152.74963,228.20833 143.6782,134.61198"
       id="path3736"
       inkscape:connector-curvature="0" />
    <path
       style="fill:none;stroke:#000000;stroke-width:0.26458332px;stroke-linecap:butt;stroke-linejoin:miter;stroke-opacity:1"
       d="m 143.6782,134.61198 -0.33073,-2.12612 4.25223,-34.490324"
       id="path3738"
       inkscape:connector-curvature="0" />
    <path
       style="fill:none;stroke:#000000;stroke-width:0.26458332px;stroke-linecap:butt;stroke-linejoin:miter;stroke-opacity:1"
       d="m 147.69982,97.667044 6.84878,-0.05011"
       id="path3740"
       inkscape:connector-curvature="0" />
    <path
       style="fill:none;stroke:#000000;stroke-width:0.26458332px;stroke-linecap:butt;stroke-linejoin:miter;stroke-opacity:1"
       d="m 147.5997,97.995535 0.10012,-0.328493"
       id="path3742"
       inkscape:connector-curvature="0" />
    <path
       style="fill:none;stroke:#000000;stroke-width:0.26458332px;stroke-linecap:butt;stroke-linejoin:miter;stroke-opacity:1"
       d="m 154.5486,97.616932 2.10475,-2.839741 -8.61944,0.03341 -0.10023,-33.14142 -1.5368,0.06682"
       id="path3744"
       inkscape:connector-curvature="0" />
    <path
       style="fill:none;stroke:#000000;stroke-width:0.26458332px;stroke-linecap:butt;stroke-linejoin:miter;stroke-opacity:1"
       d="m 146.39688,61.736001 -0.002,32.928618"
       id="path3748"
       inkscape:connector-curvature="0" />
    <path
       style="fill:none;stroke:#000000;stroke-width:0.26458332px;stroke-linecap:butt;stroke-linejoin:miter;stroke-opacity:1"
       d="m 141.71967,129.48882 4.00904,-31.671437"
       id="path3750"
       inkscape:connector-curvature="0" />
    <path
       style="fill:none;stroke:#000000;stroke-width:0.26458332px;stroke-linecap:butt;stroke-linejoin:miter;stroke-opacity:1"
       d="m 146.39488,94.664619 -0.66617,3.152761"
       id="path3752"
       inkscape:connector-curvature="0" />
    <path
       style="fill:none;stroke:#000000;stroke-width:0.26458332px;stroke-linecap:butt;stroke-linejoin:miter;stroke-opacity:1"
       d="m 141.71967,129.48882 c -0.0515,0.19345 -0.0495,0.12174 -0.0495,0.20947 0,0.076 0.006,-0.0403 -0.0236,0.0472 -0.004,0.0115 0,0.14125 0,0.16537 0,0.0551 0,0.11024 0,0.16536 0,0.0157 0,0.0315 0,0.0473 0,0.008 0.004,0.0166 0,0.0236 -0.005,0.01 -0.0187,0.0136 -0.0236,0.0236 -0.004,0.007 0.004,0.0166 0,0.0236 -0.005,0.01 -0.0187,0.0137 -0.0236,0.0236 -0.005,0.009 0.005,0.066 0,0.0709 -0.006,0.006 -0.0201,-0.007 -0.0236,0 -0.007,0.0148 0.007,0.0796 0,0.0945 -0.005,0.01 -0.0187,0.0137 -0.0236,0.0236 -0.007,0.0148 0.007,0.0796 0,0.0945 -0.004,0.007 -0.018,-0.006 -0.0236,0 -0.006,0.006 0.004,0.0166 0,0.0236 -0.005,0.01 -0.0187,0.0137 -0.0236,0.0236 -0.007,0.0141 0.007,0.0332 0,0.0473 -0.005,0.01 -0.0186,0.0136 -0.0236,0.0236 -0.007,0.0141 0.0111,0.0361 0,0.0472 -0.006,0.006 -0.018,-0.006 -0.0236,0 -0.006,0.006 0.006,0.018 0,0.0236 -0.006,0.006 -0.018,-0.006 -0.0236,0 -0.006,0.006 0.004,0.0166 0,0.0236 -0.005,0.01 -0.0157,0.0157 -0.0236,0.0236 -0.008,0.008 -0.0157,0.0157 -0.0236,0.0236 -0.0124,0.0124 -0.0583,0.0646 -0.0709,0.0709 -0.007,0.004 -0.0166,-0.004 -0.0236,0 -0.01,0.005 -0.0137,0.0187 -0.0236,0.0236 -0.007,0.004 -0.0181,-0.006 -0.0236,0 -0.006,0.006 0.006,0.0181 0,0.0236 -0.006,0.006 -0.0166,-0.004 -0.0236,0 -0.01,0.005 -0.0137,0.0187 -0.0236,0.0236 -0.007,0.004 -0.0166,-0.004 -0.0236,0 -0.006,0.003 -0.0677,0.0646 -0.0709,0.0709 -0.004,0.007 0.006,0.0181 0,0.0236 -0.0125,0.0125 -0.0348,0.0112 -0.0473,0.0236 -0.006,0.006 0.006,0.0181 0,0.0236 -0.006,0.006 -0.0166,-0.004 -0.0236,0 -0.01,0.005 -0.0136,0.0187 -0.0236,0.0236 -0.001,5.3e-4 -0.0696,5.3e-4 -0.0709,0 -0.01,-0.005 -0.0137,-0.0187 -0.0236,-0.0236 -0.0141,-0.007 -0.0332,0.007 -0.0473,0 -0.01,-0.005 -0.0136,-0.0187 -0.0236,-0.0236 -0.007,-0.004 -0.0602,0 -0.0709,0 -0.0473,0 -0.0945,0 -0.14174,0 -0.008,0 -0.0157,0 -0.0236,0 -0.008,0 -0.0166,0.004 -0.0236,0 -0.01,-0.005 -0.0137,-0.0187 -0.0236,-0.0236 -0.007,-0.004 -0.0602,0 -0.0709,0 -0.0236,0 -0.0473,0 -0.0709,0 -0.008,0 -0.0236,0.008 -0.0236,0 0,-0.008 0.0157,0 0.0236,0"
       id="path3754"
       inkscape:connector-curvature="0" />
    <path
       style="fill:none;stroke:#000000;stroke-width:0.26458332px;stroke-linecap:butt;stroke-linejoin:miter;stroke-opacity:1"
       d="m 141.83556,134.54111 c 0.0324,-0.0724 -0.0187,-0.16123 0,-0.23624 0.003,-0.0108 0.0201,-0.0131 0.0236,-0.0236 0.005,-0.0149 -0.004,-0.032 0,-0.0472 0.0285,-0.11408 0.0112,0.001 0.0472,-0.0709 0.004,-0.007 0,-0.0157 0,-0.0236 0,-0.008 0,-0.0157 0,-0.0236 0,-0.0472 0,-0.0945 0,-0.14174 0,-0.02 0.004,-0.0818 0,-0.0945 -0.004,-0.0106 -0.0187,-0.0136 -0.0236,-0.0236 -0.004,-0.007 0.006,-0.018 0,-0.0236 -0.006,-0.006 -0.0157,0 -0.0236,0 -0.0164,0 -0.10957,0.004 -0.11811,0 -0.01,-0.005 -0.0137,-0.0187 -0.0236,-0.0236 -0.007,-0.004 -0.0181,0.006 -0.0236,0 -0.006,-0.006 0.006,-0.0181 0,-0.0236 -0.006,-0.006 -0.018,0.006 -0.0236,0 -0.006,-0.006 0.006,-0.0181 0,-0.0236 -0.006,-0.006 -0.018,0.006 -0.0236,0 -0.006,-0.006 0,-0.0157 0,-0.0236 -0.0157,-0.008 -0.0326,-0.0139 -0.0472,-0.0236 -0.0185,-0.0124 -0.0273,-0.0373 -0.0472,-0.0472 -0.007,-0.004 -0.0166,0.004 -0.0236,0 -0.01,-0.005 -0.0137,-0.0187 -0.0236,-0.0236 -0.007,-0.004 -0.0166,0.004 -0.0236,0 -0.006,-0.003 -0.0677,-0.0646 -0.0709,-0.0709 -0.004,-0.007 0.004,-0.0166 0,-0.0236 -0.005,-0.01 -0.0187,-0.0136 -0.0236,-0.0236 -0.004,-0.007 0.006,-0.018 0,-0.0236 -0.006,-0.006 -0.0201,0.007 -0.0236,0 -0.007,-0.0141 0.007,-0.0332 0,-0.0472 -0.004,-0.007 -0.018,0.006 -0.0236,0 -0.006,-0.006 0.002,-0.0161 0,-0.0236 -0.006,-0.0167 -0.0139,-0.0326 -0.0236,-0.0472 -0.006,-0.009 -0.0157,-0.0157 -0.0236,-0.0236 -0.008,-0.008 -0.0137,-0.0187 -0.0236,-0.0236 -0.007,-0.004 -0.0201,0.007 -0.0236,0 -0.007,-0.0141 0,-0.0315 0,-0.0472 0,-0.008 0.006,-0.018 0,-0.0236 -0.0111,-0.0111 -0.0361,0.0111 -0.0473,0 -0.006,-0.006 0.006,-0.018 0,-0.0236 -0.0922,-0.0922 -0.0127,0.005 -0.0709,-0.0236 -0.01,-0.005 -0.0137,-0.0187 -0.0236,-0.0236 -0.015,-0.008 -0.0977,0.007 -0.11812,0 -0.0167,-0.006 -0.0302,-0.0193 -0.0472,-0.0236 -0.0153,-0.004 -0.0315,0 -0.0472,0 -0.0394,0 -0.0787,0 -0.11812,0 -0.0106,0 -0.0637,-0.004 -0.0709,0 -0.01,0.005 -0.0137,0.0187 -0.0236,0.0236 -0.0141,0.007 -0.0332,-0.007 -0.0473,0 -0.01,0.005 -0.0136,0.0187 -0.0236,0.0236 -0.007,0.004 -0.0157,0 -0.0236,0 -0.008,0 -0.0157,0 -0.0236,0 -0.0394,0 -0.0787,0 -0.11812,0 -0.008,0 -0.0166,-0.004 -0.0236,0 -0.01,0.005 -0.0137,0.0187 -0.0236,0.0236 -0.007,0.004 -0.0157,0 -0.0236,0 -0.008,0 -0.0315,0 -0.0236,0 0.0157,0 0.063,0 0.0472,0 -0.0709,0 -0.14174,0 -0.21261,0"
       id="path3758"
       inkscape:connector-curvature="0" />
    <path
       style="fill:none;stroke:#000000;stroke-width:0.26458332px;stroke-linecap:butt;stroke-linejoin:miter;stroke-opacity:1"
       d="m 141.83556,134.54111 9.00468,93.73721"
       id="path3760"
       inkscape:connector-curvature="0" />
    <path
       style="fill:none;stroke:#000000;stroke-width:0.26458332px;stroke-linecap:butt;stroke-linejoin:miter;stroke-opacity:1"
       d="m 143.49033,195.73826 4.14267,0.0668"
       id="path3762"
       inkscape:connector-curvature="0" />
    <path
       style="fill:none;stroke:#000000;stroke-width:0.26458332px;stroke-linecap:butt;stroke-linejoin:miter;stroke-opacity:1"
       d="m 148.0005,198.31072 -4.51017,-0.0334 v -2.53906"
       id="path3766"
       inkscape:connector-curvature="0" />
    <path
       style="fill:none;stroke:#000000;stroke-width:0.26458332px;stroke-linecap:butt;stroke-linejoin:miter;stroke-opacity:1"
       d="m 144.67039,164.09412 h -2.83483 l -0.0945,-2.69308 2.69309,-0.0472"
       id="path3768"
       inkscape:connector-curvature="0" />
    <path
       style="fill:none;stroke:#000000;stroke-width:0.26458332px;stroke-linecap:butt;stroke-linejoin:miter;stroke-opacity:1"
       d="m 141.33975,133.43123 -2.66029,-1.8e-4 -0.0334,-2.60588 2.19761,0.19575"
       id="path3770"
       inkscape:connector-curvature="0" />
  </g>
</svg>
